<?xml version="1.0" encoding="utf-8"?>
<!-- Generator: Adobe Illustrator 18.1.1, SVG Export Plug-In . SVG Version: 6.00 Build 0)  -->
<svg version="1.1" id="Capa_1" xmlns="http://www.w3.org/2000/svg" xmlns:xlink="http://www.w3.org/1999/xlink" x="0px" y="0px"
	 viewBox="0 0 44 44" enable-background="new 0 0 44 44" xml:space="preserve">
<g>
	
		<rect x="7.4" y="7.4" transform="matrix(0.7071 -0.7071 0.7071 0.7071 -9.1198 22.0169)" fill="none" stroke="#BD0411" stroke-width="2" stroke-miterlimit="10" width="29.1" height="29.1"/>
	<g>
		<path fill="#FFFFFF" d="M28,17.3c-0.1-0.7-0.7-1.2-1.4-1.2c-3.1,0-6.1,0-9.2,0c-0.1,0-0.2,0-0.2,0c-0.7,0.1-1.1,0.7-1.1,1.4
			c0,1.5,0,3,0,4.6c0,1.5,0,3,0,4.6c0,0.1,0,0.2,0,0.2c0.1,0.7,0.7,1.2,1.3,1.2c3.1,0,6.1,0,9.2,0c0.1,0,0.1,0,0.2,0
			c0.7-0.1,1.2-0.7,1.2-1.3c0-3.1,0-6.1,0-9.2C28,17.4,28,17.3,28,17.3z M22,19.7c1.3,0,2.3,1,2.3,2.3c0,1.3-1,2.3-2.3,2.3
			c-1.3,0-2.3-1-2.3-2.3C19.7,20.7,20.8,19.7,22,19.7z M26.6,21.2c0,1.6,0,3.3,0,4.9c0,0.3-0.2,0.5-0.5,0.5c-2.5,0-5.1,0-7.6,0
			c-0.2,0-0.4,0-0.5,0c-0.3,0-0.5-0.2-0.5-0.5c0-1.7,0-3.3,0-5c0,0,0,0,0-0.1c0.3,0,0.7,0,1,0c-0.2,0.9-0.1,1.8,0.3,2.7
			c0.3,0.6,0.8,1.1,1.4,1.4c1.2,0.7,2.7,0.6,3.9-0.2c0.6-0.4,1.1-1,1.4-1.7c0.3-0.7,0.3-1.5,0.1-2.2C25.9,21.1,26.3,21.1,26.6,21.2
			C26.6,21.1,26.6,21.1,26.6,21.2z M26.6,19.3c0,0.3-0.2,0.5-0.5,0.5c0,0,0,0,0,0c-0.2,0-0.4,0-0.7,0c-0.2,0-0.5,0-0.7,0
			c-0.3,0-0.5-0.2-0.5-0.5c0-0.5,0-0.9,0-1.4c0-0.3,0.2-0.5,0.5-0.5c0.5,0,0.9,0,1.4,0c0.3,0,0.5,0.2,0.5,0.5
			C26.6,18.4,26.6,18.8,26.6,19.3z"/>
	</g>
</g>
</svg>
