<?xml version="1.0" encoding="utf-8"?>
<!-- Generator: Adobe Illustrator 18.1.1, SVG Export Plug-In . SVG Version: 6.00 Build 0)  -->
<svg version="1.1" id="Capa_1" xmlns="http://www.w3.org/2000/svg" xmlns:xlink="http://www.w3.org/1999/xlink" x="0px" y="0px"
	 viewBox="0 0 21.9 28.5" enable-background="new 0 0 21.9 28.5" xml:space="preserve">
<g>
	<g>
		<path fill="#E0A414" d="M10.9,28.5c-0.2,0-0.4-0.1-0.6-0.2C9.9,28,0,20.4,0,10.9c0-0.3,0-0.5,0-0.8C0.4,3.1,6,0,10.9,0
			s10.5,3.1,10.9,10c0,0.3,0,0.5,0,0.8c0,9.6-9.9,17.2-10.3,17.5C11.3,28.5,11.1,28.5,10.9,28.5z M2,10.1c0,0.2,0,0.5,0,0.7
			c0,7.3,6.8,13.6,8.9,15.3c2.1-1.8,8.9-8.1,8.9-15.3c0-0.2,0-0.5,0-0.7C19.5,4.5,15.1,2,10.9,2S2.4,4.5,2,10.1z"/>
		<path fill="#E0A414" d="M10.9,15.8c-2.8,0-5-2.2-5-5s2.2-5,5-5c2.8,0,5,2.2,5,5S13.7,15.8,10.9,15.8z M10.9,7.9
			c-1.6,0-2.9,1.4-2.9,3s1.4,3,2.9,3c1.6,0,3-1.4,3-3S12.6,7.9,10.9,7.9z"/>
	</g>
</g>
</svg>
