<?xml version="1.0" encoding="utf-8"?>
<!-- Generator: Adobe Illustrator 18.1.1, SVG Export Plug-In . SVG Version: 6.00 Build 0)  -->
<svg version="1.1" id="Capa_1" xmlns="http://www.w3.org/2000/svg" xmlns:xlink="http://www.w3.org/1999/xlink" x="0px" y="0px"
	 viewBox="0 0 33.3 33.3" enable-background="new 0 0 33.3 33.3" xml:space="preserve">
<g>
	
		<rect x="5.9" y="5.9" transform="matrix(0.7071 0.7071 -0.7071 0.7071 16.6571 -6.8995)" fill="none" stroke="#E0A414" stroke-width="2" stroke-miterlimit="10" width="21.6" height="21.6"/>
</g>
<g>
	<g>
		<path fill="#E0A414" d="M15.7,15.4h1c0.4,0,0.7-0.1,0.9-0.3c0.2-0.2,0.3-0.5,0.3-0.9c0-0.3-0.1-0.6-0.3-0.8
			c-0.2-0.2-0.5-0.3-0.8-0.3c-0.3,0-0.6,0.1-0.8,0.3c-0.2,0.2-0.3,0.4-0.3,0.7H14l0,0c0-0.7,0.2-1.2,0.8-1.7s1.2-0.7,2-0.7
			c0.9,0,1.6,0.2,2.1,0.6s0.8,1,0.8,1.8c0,0.4-0.1,0.7-0.4,1.1s-0.6,0.6-1,0.8c0.5,0.2,0.8,0.4,1.1,0.8s0.4,0.8,0.4,1.2
			c0,0.8-0.3,1.4-0.9,1.8s-1.3,0.7-2.2,0.7c-0.8,0-1.5-0.2-2-0.6s-0.8-1-0.8-1.8l0,0h1.7c0,0.3,0.1,0.6,0.4,0.8
			c0.2,0.2,0.5,0.3,0.9,0.3c0.4,0,0.7-0.1,0.9-0.3c0.2-0.2,0.3-0.5,0.3-0.9c0-0.4-0.1-0.8-0.3-1c-0.2-0.2-0.6-0.3-1-0.3h-1V15.4z"/>
	</g>
</g>
</svg>
