<?xml version="1.0" encoding="utf-8"?>
<!-- Generator: Adobe Illustrator 18.1.1, SVG Export Plug-In . SVG Version: 6.00 Build 0)  -->
<svg version="1.1" id="Capa_1" xmlns="http://www.w3.org/2000/svg" xmlns:xlink="http://www.w3.org/1999/xlink" x="0px" y="0px"
	 viewBox="0 0 33.3 33.3" enable-background="new 0 0 33.3 33.3" xml:space="preserve">
<g>
	
		<rect x="5.9" y="5.9" transform="matrix(0.7071 0.7071 -0.7071 0.7071 16.6571 -6.8995)" fill="none" stroke="#E0A414" stroke-width="2" stroke-miterlimit="10" width="21.6" height="21.6"/>
</g>
<g>
	<g>
		<path fill="#E0A414" d="M13.9,20.4v-1.1l2.8-3c0.4-0.5,0.7-0.8,0.8-1.2c0.2-0.3,0.3-0.6,0.3-0.9c0-0.4-0.1-0.7-0.3-0.9
			s-0.5-0.3-0.8-0.3c-0.4,0-0.7,0.1-0.9,0.4s-0.3,0.6-0.3,1.1h-1.7l0,0c0-0.8,0.2-1.4,0.8-2s1.2-0.8,2.1-0.8c0.9,0,1.6,0.2,2.1,0.7
			s0.8,1.1,0.8,1.8c0,0.5-0.1,1-0.4,1.4c-0.3,0.4-0.8,1-1.4,1.7l-1.5,1.7l0,0h2.2l0.1-0.8h1.3v2.2H13.9z"/>
	</g>
</g>
</svg>
